<?xml version="1.0" encoding="iso-8859-1"?>
<!-- Uploaded to: SVG Repo, www.svgrepo.com, Generator: SVG Repo Mixer Tools -->
<svg height="800px" width="800px" version="1.1" id="Layer_1" xmlns="http://www.w3.org/2000/svg" xmlns:xlink="http://www.w3.org/1999/xlink" 
	 viewBox="0 0 512.001 512.001" xml:space="preserve">
<path style="fill:#FFDCE1;" d="M485.813,265.236l-25.539,9.691l-50.314,19.099L292.907,176.974l19.099-50.314l9.691-25.539
	c1.736-4.599,4.851-8.238,8.677-10.726c1.515-1.223,3.199-2.258,5.038-3.053c1.558-0.68,3.241-1.192,4.997-1.505l59.43-10.569
	c0.219-0.031,0.439-0.041,0.67-0.084c0.439-0.062,0.899-0.126,1.338-0.167c0.365-0.031,0.721-0.031,1.087-0.041
	c0.355-0.021,0.69-0.041,1.035-0.031c0.418,0,0.847,0.031,1.254,0.062c0.293,0.021,0.585,0.041,0.878,0.062
	c0.429,0.052,0.847,0.115,1.265,0.177c0.293,0.062,0.585,0.105,0.868,0.157c0.398,0.084,0.794,0.188,1.192,0.293
	c0.303,0.074,0.616,0.157,0.93,0.262c0.344,0.115,0.69,0.231,1.035,0.367c0.334,0.126,0.68,0.241,1.014,0.387
	c0.303,0.136,0.616,0.282,0.909,0.429c0.355,0.167,0.69,0.334,1.035,0.512c0.293,0.167,0.575,0.344,0.878,0.523
	c0.313,0.188,0.637,0.387,0.951,0.596c0.324,0.22,0.627,0.46,0.93,0.68c0.262,0.198,0.523,0.398,0.773,0.606
	c0.377,0.313,0.732,0.648,1.087,0.983c0.136,0.136,0.293,0.251,0.429,0.387l85.366,85.366c0.095,0.095,0.167,0.188,0.262,0.282
	c5.248,4.956,7.986,12.377,6.628,20.009l-10.559,59.441c-0.313,1.756-0.826,3.418-1.515,4.987c-0.784,1.808-1.787,3.461-2.979,4.945
	C494.123,260.334,490.443,263.492,485.813,265.236z"/>
<path style="fill:#F4CED2;" d="M485.813,265.236l-75.854,28.79l-58.531-58.531l111.021-111.021l42.318,42.318
	c0.095,0.095,0.167,0.188,0.262,0.282c5.248,4.956,7.986,12.377,6.628,20.009l-10.559,59.441c-0.67,3.764-2.268,7.141-4.496,9.932
	C494.123,260.334,490.443,263.492,485.813,265.236z"/>
<path style="fill:#F5888E;" d="M485.813,265.236l-25.539,9.691L312.006,126.66l9.691-25.539c1.736-4.599,4.851-8.238,8.677-10.726
	c1.515-1.223,3.199-2.258,5.038-3.053L499.58,251.509c-0.784,1.808-1.787,3.461-2.979,4.945
	C494.123,260.334,490.443,263.492,485.813,265.236z"/>
<path style="fill:#F76976;" d="M485.813,265.236l-25.539,9.691l-74.139-74.139l31.361-31.361l82.084,82.084
	c-0.784,1.808-1.787,3.461-2.979,4.945C494.123,260.334,490.443,263.492,485.813,265.236z"/>
<path style="fill:#F4B74A;" d="M415.154,316.639c0-38.762-14.896-75.236-42.004-102.866c-0.334-0.355-0.69-0.711-1.035-1.056
	c-27.756-27.756-64.658-43.039-103.911-43.029c-39.244,0-76.147,15.284-103.901,43.039s-43.039,64.658-43.039,103.901
	c-0.01,39.255,15.284,76.147,43.039,103.901c0.344,0.344,0.701,0.701,1.056,1.035c27.63,27.106,64.093,42.015,102.855,42.015
	c19.611,0,38.659-3.826,56.252-11.113c17.605-7.297,33.767-18.044,47.649-31.926C399.871,392.785,415.154,355.883,415.154,316.639z
	 M268.204,419.222c-26.898,0.01-52.227-10.287-71.484-29.02c-0.355-0.334-0.711-0.69-1.056-1.035
	c-19.371-19.371-30.054-45.13-30.054-72.539c0.01-27.399,10.674-53.157,30.054-72.539c19.382-19.382,45.14-30.044,72.539-30.054
	c27.41,0,53.18,10.674,72.55,30.044c0.344,0.344,0.701,0.701,1.035,1.056c18.733,19.256,29.02,44.596,29.009,71.494
	c0.01,13.705-2.666,27.003-7.757,39.286c-5.092,12.283-12.597,23.573-22.288,33.264C321.373,408.56,295.615,419.222,268.204,419.222
	z"/>
<path style="fill:#EFA125;" d="M372.117,420.539c-13.882,13.882-30.044,24.629-47.649,31.926
	c-17.594,7.286-36.641,11.113-56.252,11.113c-38.764,0-75.225-14.907-102.855-42.015l31.361-31.361
	c19.256,18.733,44.586,29.03,71.484,29.02c27.41,0,53.168-10.662,72.55-30.044c9.691-9.691,17.197-20.981,22.288-33.264
	c5.092-12.283,7.768-25.581,7.757-39.286c0.01-26.898-10.276-52.238-29.009-71.494l31.361-31.361
	c27.106,27.63,42.004,64.103,42.004,102.866C415.154,355.883,399.871,392.785,372.117,420.539z"/>
<path style="fill:#F4B74A;" d="M293.89,195.373c0-39.265-15.284-76.167-43.039-103.921S186.193,48.412,146.94,48.423
	c-39.244,0-76.147,15.284-103.901,43.039S0,156.12,0,195.362c-0.01,39.255,15.284,76.147,43.039,103.901
	c27.756,27.754,64.648,43.05,103.911,43.05c19.611,0,38.659-3.826,56.252-11.113c17.605-7.297,33.767-18.044,47.649-31.926
	C278.606,271.519,293.89,234.617,293.89,195.373z M146.94,297.958c-27.399,0.01-53.157-10.674-72.539-30.054
	c-19.371-19.371-30.054-45.13-30.054-72.539c0.01-27.399,10.674-53.157,30.054-72.539c19.382-19.382,45.14-30.044,72.539-30.054
	c27.41,0,53.18,10.674,72.55,30.044c19.382,19.382,30.054,45.15,30.044,72.55c0.01,13.705-2.666,27.003-7.757,39.286
	c-5.092,12.284-12.597,23.573-22.288,33.264C200.108,287.294,174.349,297.958,146.94,297.958z"/>
<path style="fill:#EFA125;" d="M250.851,299.275c-13.882,13.882-30.044,24.629-47.649,31.926
	c-17.594,7.287-36.641,11.113-56.252,11.113c-39.265,0-76.157-15.294-103.911-43.05l31.361-31.361
	c19.382,19.382,45.14,30.065,72.539,30.054c27.41,0,53.168-10.664,72.55-30.044c9.691-9.691,17.197-20.981,22.288-33.264
	c5.092-12.284,7.768-25.581,7.757-39.286c0.01-27.399-10.664-53.168-30.044-72.55l31.361-31.361
	c27.756,27.756,43.039,64.658,43.039,103.921C293.89,234.617,278.606,271.519,250.851,299.275z"/>
</svg>